<svg xmlns="http://www.w3.org/2000/svg" viewBox="-1735 -1848 30 30">
  <defs>
    <style>
      .cls-1 {
        fill: #5a37ed;
      }
    </style>
  </defs>
  <g id="facebook-logo" transform="translate(-1735 -1848)">
    <g id="post-facebook">
      <path id="Path_1693" data-name="Path 1693" class="cls-1" d="M27,0H3A3.009,3.009,0,0,0,0,3V27a3.009,3.009,0,0,0,3,3H27a3.009,3.009,0,0,0,3-3V3A3.009,3.009,0,0,0,27,0ZM25.5,3V7.5h-3A1.417,1.417,0,0,0,21,9v3h4.5v4.5H21V27H16.5V16.5h-3V12h3V8.25A5.315,5.315,0,0,1,21.75,3Z"/>
    </g>
  </g>
</svg>
